PathFileType  4	(X/Y/Z) C:\Users\antoi\Documents\MyRepositories\mobilecap\ResultsAnalysis
DataRate	CameraRate	NumFrames	NumMarkers	Units	OrigDataRate	OrigDataStartFrame	OrigNumFrames
100.0	100.0	6	51	mm	100.0	2003	2288
Frame#	Time	r_knee			r_shank_antsup			r_ankle			r_calc			r_5meta			r_toe			L_knee			L_shank_antsup			L_ankle			L_calc			L_5meta			L_toe			r_sh2			r_sh3			r_sh4			L_sh2			L_sh3			r_thigh1			r_thigh2			r_thigh3			r_thigh4			r_thigh5			L_thigh1			L_thigh2			L_thigh3			L_thigh4			r.ASIS			r.PSIS			L.ASIS			L.PSIS			C7			R_Shoulder			L_Shoulder			R_Sternum			L_Sternum			R_humerus			R_elbow_med			R_elbow_lat			R_forearm			R_wrist_radius			R_wrist_ulna			L_humerus			L_elbow_med			L_elbow_lat			L_forearm			L_wrist_radius			L_wrist_ulna			R_HJC			L_HJC			R_HJC_reg			L_HJC_reg			
		X1	Y1	Z1	X2	Y2	Z2	X3	Y3	Z3	X4	Y4	Z4	X5	Y5	Z5	X6	Y6	Z6	X7	Y7	Z7	X8	Y8	Z8	X9	Y9	Z9	X10	Y10	Z10	X11	Y11	Z11	X12	Y12	Z12	X13	Y13	Z13	X14	Y14	Z14	X15	Y15	Z15	X16	Y16	Z16	X17	Y17	Z17	X18	Y18	Z18	X19	Y19	Z19	X20	Y20	Z20	X21	Y21	Z21	X22	Y22	Z22	X23	Y23	Z23	X24	Y24	Z24	X25	Y25	Z25	X26	Y26	Z26	X27	Y27	Z27	X28	Y28	Z28	X29	Y29	Z29	X30	Y30	Z30	X31	Y31	Z31	X32	Y32	Z32	X33	Y33	Z33	X34	Y34	Z34	X35	Y35	Z35	X36	Y36	Z36	X37	Y37	Z37	X38	Y38	Z38	X39	Y39	Z39	X40	Y40	Z40	X41	Y41	Z41	X42	Y42	Z42	X43	Y43	Z43	X44	Y44	Z44	X45	Y45	Z45	X46	Y46	Z46	X47	Y47	Z47	X48	Y48	Z48	X49	Y49	Z49	X50	Y50	Z50	X51	Y51	Z51	

2003	20.02000000	-163.07354	447.77881	-422.78681	-114.95240	343.53880	-431.58594	-239.04925	91.65981	-440.37183	-288.97538	51.03593	-490.79745	-132.42874	43.60753	-400.76016	-93.84261	62.84159	-440.15040	-168.96789	450.63612	-804.45751	-111.13560	346.55188	-768.78587	-250.19193	90.64726	-796.36983	-298.51389	50.54989	-746.13110	-135.46956	37.51585	-820.28155	-94.27950	56.81070	-768.84271	-147.06825	234.74372	-442.51395	-173.87195	353.58706	-385.17738	-216.71910	251.18580	-402.70544	-167.00081	381.15024	-831.27570	-200.45639	264.32288	-843.67224	-402.61705	627.92221	-431.72775	-307.17723	596.37686	-430.29986	-298.86366	540.03043	-388.35277	-440.99131	528.85425	-393.00588	-330.63728	494.67184	-387.11366	-407.02253	606.04480	-806.00184	-282.48081	574.38515	-799.79660	-454.88646	503.84413	-826.94606	-316.26357	473.19280	-828.59904	-385.88785	604.15288	-487.75254	-525.56566	714.83170	-562.01897	-390.22109	615.52514	-735.43200	-528.91772	714.72578	-668.77725	-148.27192	979.29932	-616.23364	-113.68497	913.25543	-469.97478	-109.51986	913.45192	-765.11368	-88.57281	850.14195	-597.39927	-89.86331	847.83360	-639.74822	-188.29961	821.03859	-396.50756	-406.34387	768.15319	-408.58879	-356.44546	744.68546	-344.19076	-263.12110	689.63780	-403.02699	-185.48522	673.99439	-466.12018	-197.30447	638.33441	-465.39439	-185.25974	798.55558	-840.77156	-376.51832	716.81957	-824.88633	-341.72125	701.26352	-894.83507	-255.64000	655.67017	-845.37119	-162.52891	635.53933	-762.01461	-174.64973	605.49071	-762.30375	-493.07211	573.99733	-517.32948	-490.68267	573.60499	-706.69169	-479.04138	576.03816	-519.52602	-484.17817	575.87621	-683.11063	
2004	20.03000000	-164.61751	447.91927	-422.58367	-115.97094	343.76217	-431.71537	-239.33262	91.19925	-440.96704	-289.05409	50.95769	-490.83563	-132.56390	43.71233	-400.88307	-93.95561	63.49343	-439.99148	-170.32978	450.57407	-804.50530	-112.02070	346.86080	-768.89488	-250.38131	90.58427	-796.43860	-298.60684	50.51246	-746.17500	-135.50774	37.67158	-820.23988	-94.31449	57.18463	-768.86846	-147.82232	235.05060	-442.50651	-174.87341	353.71299	-385.06388	-217.57541	251.76831	-402.48460	-168.02206	381.16567	-831.33682	-201.15641	264.36303	-843.75546	-406.10243	625.37478	-432.26240	-309.89654	594.91419	-430.32625	-301.36814	538.81249	-388.31596	-443.34252	526.18742	-393.23687	-332.70870	493.12476	-387.20913	-409.97664	603.66484	-805.74312	-284.93905	573.33284	-799.85702	-456.71559	501.18528	-827.27699	-317.76925	471.89780	-828.97223	-388.06366	602.30333	-488.92478	-529.36588	711.04086	-562.42305	-393.22149	613.39587	-735.72086	-533.07225	711.30156	-668.97377	-155.12061	980.06672	-616.30814	-120.01462	914.35260	-469.98217	-115.83654	914.68244	-765.06212	-94.28385	851.57912	-597.54247	-95.46328	849.25224	-639.91439	-193.70656	821.45499	-396.52025	-411.13404	766.21972	-408.72371	-361.01936	743.27248	-344.25389	-267.28264	689.20246	-403.08619	-189.40089	674.17052	-466.06646	-200.83026	638.45195	-465.21712	-190.36663	799.32052	-841.26584	-380.88046	715.30787	-824.82287	-345.86560	700.26376	-895.03365	-259.28308	655.39845	-845.76799	-165.82904	635.93460	-762.61209	-177.79519	605.69368	-762.71863	-494.99750	570.77556	-517.74510	-493.15935	570.41337	-707.11363	-480.68700	572.59657	-520.38249	-486.35562	572.99403	-683.36816	
2005	20.04000000	-166.15290	448.11418	-422.20710	-116.99597	344.01663	-431.73538	-239.75157	90.43500	-441.68449	-289.07724	50.92522	-490.82287	-132.67609	43.80785	-401.03391	-94.02679	63.96376	-439.96451	-171.72871	450.57660	-804.59857	-112.93855	347.21590	-769.01765	-250.56743	90.59401	-796.59742	-298.68991	50.49618	-746.27129	-135.55500	37.80170	-820.20974	-94.34822	57.50835	-768.85305	-148.48430	235.27734	-442.46571	-175.87037	353.71449	-385.13477	-218.65358	252.40297	-402.27612	-169.05191	381.26737	-831.56472	-201.76645	264.43462	-843.72197	-409.36753	622.90490	-432.55596	-312.80342	593.61694	-430.22502	-303.82518	537.33542	-388.70056	-445.64250	523.60067	-393.42376	-334.72215	491.49808	-387.45683	-412.77306	601.33653	-805.69893	-287.42529	572.29270	-799.96238	-458.47744	498.56984	-827.68921	-319.24309	470.66303	-829.45131	-390.37092	600.98839	-489.58316	-533.30327	707.51869	-562.61050	-396.31084	611.29382	-736.47679	-537.26753	707.97089	-669.30497	-162.47428	981.15292	-616.39002	-126.65162	915.83384	-469.88977	-122.39490	916.25498	-765.07357	-100.28938	853.23988	-597.57950	-101.33814	851.00815	-639.91236	-199.32137	822.19779	-396.44024	-416.05509	764.39056	-408.87563	-365.75255	742.09033	-344.28891	-271.44704	689.07388	-402.85462	-193.41254	674.62324	-466.05713	-204.50613	638.70890	-465.20238	-195.80456	800.07042	-841.14282	-384.55428	714.17661	-824.52093	-350.17725	699.49001	-895.25798	-262.98235	655.37108	-846.30203	-169.26808	636.57256	-763.01498	-180.98433	606.33126	-763.29703	-496.96093	567.94433	-517.97890	-495.72648	567.30113	-707.35138	-482.63958	569.26766	-520.93580	-488.69659	569.95727	-683.96107	
2006	20.05000000	-167.63792	448.21730	-422.01120	-117.99192	344.36035	-431.59227	-240.07621	89.95086	-442.06079	-289.01576	50.83953	-490.79769	-132.78639	44.07666	-401.08652	-94.11147	64.34548	-439.91965	-173.13216	450.69678	-804.85537	-113.81871	347.54713	-769.07122	-250.72019	90.60792	-796.70124	-298.73231	50.45357	-746.27632	-135.64925	37.74861	-819.95058	-94.38736	57.75520	-768.84087	-148.99547	235.29765	-442.42752	-176.85075	353.70568	-385.19211	-219.23893	251.93097	-402.39140	-169.98416	381.49463	-831.87985	-202.24401	264.39761	-843.56001	-412.47856	620.79664	-432.48731	-315.83930	592.26631	-430.30531	-306.48804	535.62899	-389.39082	-447.92619	520.97762	-393.75667	-336.69538	489.89056	-387.62825	-415.46069	599.08803	-805.84996	-289.97187	571.28194	-800.04377	-460.18898	495.85479	-827.87469	-320.68596	469.49225	-829.88221	-393.22232	600.27629	-489.58253	-537.59107	704.35917	-562.76516	-399.54319	609.16429	-737.39888	-541.55580	704.71585	-669.61656	-170.20743	982.41773	-616.28777	-133.55983	917.52205	-469.94116	-129.30481	918.13156	-765.08840	-106.49423	855.20526	-597.51039	-107.54972	853.02784	-639.86367	-205.20526	823.13708	-396.31835	-421.16498	762.67900	-409.04250	-370.67160	741.12764	-344.26434	-275.58957	689.29007	-402.31309	-197.56941	675.34418	-465.98544	-208.33312	639.20029	-465.23356	-201.53346	801.11829	-841.05532	-387.69957	713.68581	-824.26235	-354.64731	698.88957	-895.42601	-266.86422	655.59235	-846.74903	-172.92582	637.58687	-763.55824	-184.23202	607.33437	-764.09472	-499.31820	565.59539	-517.92539	-498.47594	564.25710	-707.29635	-485.24154	566.25863	-521.09945	-491.31180	566.80352	-684.70336	
2007	20.06000000	-169.16639	448.22090	-422.00551	-118.98355	344.74284	-431.41861	-240.25490	89.89911	-442.09066	-288.90557	50.65748	-490.81406	-132.95927	44.52044	-400.98406	-94.21885	64.80708	-439.79849	-174.44779	450.89133	-805.23455	-114.67509	347.85689	-769.07836	-250.83739	90.56814	-796.73423	-298.73818	50.29696	-746.09861	-135.76968	37.53669	-819.46784	-94.42740	58.02515	-768.89826	-149.58899	235.49372	-442.32990	-177.86915	353.85766	-385.02405	-219.89120	251.49415	-402.47718	-170.85750	381.74826	-832.06455	-202.72923	264.31840	-843.45422	-415.71070	618.75738	-432.51514	-318.77942	590.86178	-430.44934	-309.35903	534.19865	-389.67120	-450.22918	518.28245	-394.20180	-338.65536	488.36125	-387.71728	-418.22746	596.88175	-805.99800	-292.48674	570.28405	-800.11831	-461.87816	493.10618	-827.95010	-322.11408	468.27568	-830.08934	-396.33400	599.68106	-489.54798	-542.03291	701.17273	-563.18997	-402.62510	606.99325	-737.78734	-545.86080	701.32366	-669.99185	-178.16222	983.77282	-616.09668	-140.80828	919.39630	-470.10719	-136.60432	920.27072	-765.07034	-112.86508	857.49937	-597.49089	-114.03235	855.25784	-639.95052	-211.40567	824.29548	-396.19394	-426.51971	761.07045	-409.17351	-375.80928	740.29470	-344.21747	-279.93039	689.60817	-402.04550	-201.91388	676.35428	-465.83858	-212.29130	640.06571	-465.07050	-207.48728	802.50669	-841.25118	-391.73636	713.20724	-824.25315	-359.24683	698.42732	-895.59015	-270.96281	655.99594	-847.03790	-176.72139	638.89467	-764.12677	-187.56145	608.51273	-764.79313	-501.87125	563.31110	-517.79273	-501.04698	561.10224	-707.15629	-487.88714	563.48430	-521.21806	-493.75969	563.71580	-685.07367	
2008	20.07000000	-170.81259	448.26079	-421.87745	-120.02216	345.13655	-431.29542	-240.46402	89.95182	-442.07960	-288.88821	50.49724	-490.85248	-133.14248	44.86281	-400.92221	-94.30200	65.25711	-439.75567	-175.71074	451.12956	-805.65242	-115.59477	348.20150	-769.06668	-250.95779	90.52052	-796.82289	-298.74965	50.14378	-745.98181	-135.86467	37.40576	-819.10056	-94.45728	58.33150	-768.97324	-150.37897	235.98624	-442.16720	-178.96067	354.11904	-384.72846	-220.93161	251.95842	-402.19478	-171.76110	381.97622	-832.14784	-203.29423	264.37395	-843.58831	-419.08472	616.38709	-432.94737	-321.72547	589.73938	-430.39644	-311.91039	533.28510	-389.32537	-452.57086	515.50626	-394.61605	-340.66176	486.83948	-387.82633	-421.07606	594.70381	-806.17844	-294.92661	569.23352	-800.17856	-463.55286	490.38595	-828.19625	-323.53494	466.99470	-830.26823	-399.49629	598.98934	-489.72139	-546.54137	697.79692	-563.80697	-405.37066	604.78129	-737.46266	-550.20458	697.77989	-670.55879	-186.27774	985.24526	-616.04597	-148.42407	921.54437	-470.15736	-144.16237	922.63909	-765.13908	-119.51615	859.99682	-597.58450	-120.65049	857.70124	-640.15675	-217.84949	825.65168	-396.12602	-432.08614	759.57544	-409.24020	-381.16783	739.42949	-344.34595	-284.57191	689.90329	-402.14012	-206.46221	677.63118	-465.65142	-216.36231	641.25446	-464.77118	-213.60678	804.04156	-841.44812	-397.36416	711.89084	-824.44678	-363.99620	698.04927	-895.80340	-275.13594	656.57060	-847.34202	-180.51370	640.53493	-764.68124	-191.02245	609.81979	-765.22563	-504.47226	560.90676	-517.67207	-503.28091	557.79919	-707.02009	-490.24217	560.79666	-521.41999	-495.85343	560.77105	-684.92395	
